<svg width="29" height="47" viewBox="0 0 29 47" fill="none" xmlns="http://www.w3.org/2000/svg">
<path fill-rule="evenodd" clip-rule="evenodd" d="M26.8447 13.3814C26.8487 16.3623 25.8493 19.2584 24.0064 21.6059C22.7819 20.8939 21.4203 20.448 20.0108 20.2973C18.6013 20.1467 17.1758 20.2947 15.8277 20.7316C14.4796 21.1686 13.2394 21.8847 12.1883 22.8329C11.1372 23.7811 10.299 24.9401 9.72856 26.2338C7.32888 25.549 5.16827 24.2107 3.48947 22.3692C1.81067 20.5276 0.680195 18.2559 0.225043 15.8092C-0.230109 13.3625 0.0080953 10.8377 0.912896 8.51853C1.8177 6.19934 3.35325 4.17762 5.34703 2.68049C7.34082 1.18337 9.71386 0.270153 12.1995 0.0434471C14.6852 -0.183259 17.1851 0.285523 19.4183 1.39713C21.6514 2.50873 23.5295 4.21912 24.8413 6.33614C26.1532 8.45316 26.847 10.8929 26.8447 13.3814Z" fill="#0693c0"/>
<path fill-rule="evenodd" clip-rule="evenodd" d="M29 30.2733C29.0035 31.5926 28.7458 32.8997 28.2418 34.1195C27.7378 35.3394 26.9974 36.4482 26.0628 37.3823C25.1283 38.3164 24.0181 39.0575 22.7958 39.5632C21.5736 40.0689 20.2632 40.3292 18.9398 40.3292C18.5787 40.3295 18.2178 40.3096 17.8589 40.2697C17.9178 39.8824 17.9466 39.4912 17.9451 39.0995C17.9451 36.9953 17.1067 34.9774 15.6143 33.4896C14.1219 32.0017 12.0978 31.1659 9.98719 31.1659C9.63228 31.1668 9.27783 31.1911 8.92613 31.2386C8.89397 30.9245 8.87847 30.6089 8.87971 30.2932C8.8784 28.9068 9.16752 27.5354 9.72855 26.2669C12.3001 27.0017 15.0332 26.9538 17.5772 26.1292C20.1212 25.3046 22.36 23.7409 24.0064 21.6389C25.521 22.5199 26.7784 23.78 27.6543 25.2945C28.5302 26.8089 28.994 28.5252 29 30.2733Z" fill="#0038C9"/>
<path fill-rule="evenodd" clip-rule="evenodd" d="M17.8589 40.2432C17.6423 41.7018 17.0224 43.0713 16.0686 44.1981C15.1148 45.325 13.8648 46.1645 12.4591 46.6226C11.0533 47.0807 9.54732 47.1391 8.11008 46.7914C6.67284 46.4437 5.36122 45.7036 4.32241 44.6541C3.28359 43.6046 2.55869 42.2873 2.22902 40.85C1.89936 39.4127 1.97799 37.9122 2.45609 36.5169C2.93418 35.1216 3.79283 33.8868 4.93568 32.9509C6.07853 32.0151 7.46036 31.4153 8.92612 31.2188C9.14484 33.5185 10.1532 35.6724 11.7807 37.3167C13.4082 38.9609 15.5552 39.9947 17.8589 40.2432Z" fill="#0038C9"/>
</svg>
