<svg id="Layer_1" data-name="Layer 1" xmlns="http://www.w3.org/2000/svg" xmlns:xlink="http://www.w3.org/1999/xlink" viewBox="0 0 433.56 125.33"><defs><style>.cls-1{fill:none;}.cls-2{clip-path:url(#clip-path);}.cls-3{fill:#010101;}</style><clipPath id="clip-path"><rect class="cls-1" y="0.69" width="428.73" height="124.64"/></clipPath></defs><title>web_light</title><g class="cls-2"><path class="cls-3" d="M222.13,15.81l-1.26-.22C221.46,15.71,221.85,15.77,222.13,15.81Z"/><path class="cls-3" d="M231,18.28l.27-.12C230.84,18.14,230.65,18.17,231,18.28Z"/><path class="cls-3" d="M383.87,94.67c-1.33-1.36-2.74-3-2.8-2.52l.23.68A17.92,17.92,0,0,1,383.87,94.67Z"/><path class="cls-3" d="M301.63,45.86l.41.38,1.31.24Z"/><path class="cls-3" d="M299.61,46.81l-2-1.42C298,45.74,298.67,46.2,299.61,46.81Z"/><path class="cls-3" d="M172.49,8.77l-1.49.4C173.31,9.24,172.3,9,172.49,8.77Z"/><path class="cls-3" d="M226.85,12.29c-.79-.12-1.14-.13-1.14,0C226.52,12.4,227,12.44,226.85,12.29Z"/><path class="cls-3" d="M6.78,72.11c-.11.07-.24.18-.34.24S6.59,72.3,6.78,72.11Z"/><path class="cls-3" d="M89.08,20.38l-.25,0C87.75,21,88.24,20.79,89.08,20.38Z"/><path class="cls-3" d="M355.36,80.87l.12.06-.14-.11Z"/><path class="cls-3" d="M351.57,78.76a9.73,9.73,0,0,1,3.77,2.06l-.5-1.84Z"/><path class="cls-3" d="M200.54,11.34c1,.26,1.94.59,2.9.9-1.84-.05-3.4-.15-4.16-.17s-.72.07.62.55c.16-.32,1-.4,2.08-.3s2.55.37,4,.63,2.87.51,4,.62,1.91.14,2.09-.17l1.87.72c-.55-.14-.65-.08-1.2-.22,3.61,1.5,3-.35,7.82,1,1.66.54,2.78,1,1.59.9l3.83.66c1.08.32.75.47-.33.16l2.87.71,2.84.8-.06,0c.87,0,2.79.28,3.73.41,1.38.62-.77-.08-.45.2,1.08.21,2.16.4,3.23.64.58.38.2.44-.59.3a19.7,19.7,0,0,1-3.08-.75,4.93,4.93,0,0,0,3,1.38,20.39,20.39,0,0,1,5.65,1.91l-3-.81c1.63,1.38,4,1.81,7.12,3.47-.67-.57-6.19-3.41-2.72-2.6a20.23,20.23,0,0,0,4,1.3c-.15.46,1.64,1,3.84,1.79l-.37.54c2.43.7,2.36.32,3.84.61,2.6,1.11,2.95,1.79,3.41,2.43,4.14,1.77-2.59-1.9,2.41,0a74.55,74.55,0,0,0,10.16,3.93c2.3,1.31-.58.17.21.73l2.32.52c.52.25.28.31.16.34,1.87.65.42-.51,3.3.63,1.08-.31,5.28,3.67,9.07,4.65.76.58-.59.15-.44.5,4.93,1.87,4.18,1.71,8.35,3.05,1,.69,2.05,1.37,3.05,2.08-2.15-1.71,1.15-.56,4.05.47-.74-.66-1.37-1.23-1.8-1.58l4.42,2c.47.37-.07.33-.9.19l.86.29c1.41,1,.44.92-.82.65L302,46.24c-1.23-.23-2.42-.38-2.38.07a10.1,10.1,0,0,1,1.48.6c-.33-.06-.55-.07-.45.06a5.32,5.32,0,0,0,1.39.48l.62,1.15.37-.12c1.79,1.12,3.53,2.32,5.3,3.47,4.29,1.58,8.22,2.66,14.55,6.08-1.79-.47-.76.54-1.17,1-1.33-1.58-4.93-2.58-8.06-4.58,1.64,1,1.12,1.08.64.92l6,2.84c-.38.35,1,1.05,2.39,2.12-.61-1.53,4.58,2,7,3.14,0,.38-.76.32-3.54-1.45,2.72,2.51,4.62,1.46,7.32,3.88-.69-.41-1-.69-1.39-.71,1.75.74,5.53,3.37,4.45,3.05l-.68-.42c2.23,1.47,5.65,3.67,8.66,5.45s5.58,3.21,6.15,3.07a3.39,3.39,0,0,1-1.51.44c3.19.93,6.36,1.89,9.54,2.86-1.1.14.62,3.37-3.3,1.27a28.28,28.28,0,0,0,4.63,3c-.67-.57-1.22-2.08-.19-1.48a57.09,57.09,0,0,0,4.58,4.43c-1-.85.85-1,2.54.18-.36,0-.49,1-1.18.71l4.87,1.94c-1.17-.55-.72.66,0,1.56-.32-.48,3.65,2.51,4.84,3.18L374,93.05c4.69,3.38,5.61,1.91,10.32,5.19-.7-.2-2.22.21.11,2a35.3,35.3,0,0,1,10.89,3.57l.62.82,3.42,1.89a121.1,121.1,0,0,1-12.6-4.52c1.63,1.44.27.66,3,2.47.77.91-1.72-.61-2.51-1.13l6.11,4.43c.1-.75,5.14,2.71,5.22,2.08l-7.16-4.06c.11-.74,5,1.11,9.34,4.23,1,1-1.52.41-1.55.66a27.07,27.07,0,0,1,4.75,2.91l-2.07-1c2.31,1.89,4.51,2,7.11,4.55,1,.73,2.57,2.79,3,2.58-1.24-1.76-.23-4,1.2-3.67.33.29,4.95,4.25,5.92,5.35,1.35,1.63-3.34-.52-2.19.88.16-.12,1.22.32,1.65.53,1,.85-.76.17,1.63,1.67.77-.3,4.73,3.25,1.42.27,2.4,1.38,2.36,1.75,5.08,3.52-.62-.94,3.25.36,5.66,1.72-.23,0,.16.59.35.84,4.71,3.13,7.06,5.07,11.51,7.9.32.4,2.36,1.94,1.29,1.6a15.46,15.46,0,0,1,2.8,1.35c2.35,2.18-3.12-1.86-1.47,0,.38-.22,3.86,1.78,6,2.79-.28-.9-4.49-2.92-6.57-4,.44-.72,4.31.72,9.2,3.25,3.84,2.1,1.33,1.46,2,1.75a27.29,27.29,0,0,0,6.7,3.24,20.56,20.56,0,0,1,5.67,2.9c2.1,1.76-.41,1-.07,1.62-3.23-1.52-4.61-3-6.71-4.14l2.45,1.7a20.81,20.81,0,0,1-4.24-2.27,57.28,57.28,0,0,0,7.32,4.49c1.74,1,3.61,2,5.38,2.94s3.47,1.87,4.85,2.67c1.08.35,2.92,1,2.18.42l-1.83-.81c-1.46-1.2,3.64,1.12,1.46-.18a64.57,64.57,0,0,1,8.83,3.37l.42.84a9.85,9.85,0,0,0-3.18-1.54,19,19,0,0,1,3.32,1.64,8,8,0,0,0,3.61,1.23l-2.3-1.35,4.31,1.06a30.5,30.5,0,0,1,4.67,1.43c-1.23-1.07-.75-.19-2.73-1.63.82.74-1.19.09-3-.65s-3.51-1.36-2.15-.34a14.35,14.35,0,0,0-2.93-1.81,21.05,21.05,0,0,1-3.42-2c0,.22.85.82-1.63-.44a4.14,4.14,0,0,1-.63-.09l-.16-.09.13.08c-.13,0-.14,0,0,0a5.34,5.34,0,0,1,1.16.88,18.34,18.34,0,0,1-3.46-1.13c-1.36-.57-2.72-1.18-3.45-1.4-1.45-.82.73.1,0-.5-.73-.22-1.45-.44-2.17-.69,0-.5-3.56-2.7,0-1.13l-3.1-1.64a38,38,0,0,0-5.77-3.36c-1.39-.91-3.88-1.65-2.45-1.24-1.65-.82-3.27-1.7-4.9-2.56V145c-4.65-2.85-10-5.24-14.82-9.32A51.08,51.08,0,0,1,439,132l-.29-.65c-2.06-1.18-5.74-4.21-6.81-4.44-1.56-2.27-9.44-6.56-12.79-9l-.41.33c-2.36-1.63-4.72-3.06-7.78-4.89l-.07.49c-2.75-1.42-6.35-4.71-10.39-7.42a6.92,6.92,0,0,1,2,1.35c-4.22-4.11-10.53-6.32-14.46-9.91a12,12,0,0,1-2.62-1.8,1.64,1.64,0,0,0,.28.16l-.44-.31-1.38-1.22A15.12,15.12,0,0,0,385,95.73c-.85-.56-2.15-1.38-3.45-2.14l-.26-.76-.3-.18c-1.12-1-1.11-.49-.66.26-.67-.36-1.3-.68-1.81-.89-.55-1.31-3.42-2-4.31-3.61-1.06-.24-6.44-4-7.59-3.73,0-.12-.32-.41.36,0A23.31,23.31,0,0,0,362.93,82l-.25-.9-3.51-1.35c-1.66-1.54-2.31-2.23-.2-1.4-4.86-2.35-3.76-2.17-8-4l.41-.21c-1.37-.88-3.84-1.85-4.48-2.66-2.65-2.61-15.07-9.81-22.76-15.16,1,1.93-3.45-2.69-4.25-2.08-.33-.51-1.37-1.31.06-.75-4.25-2.19-6-4-9.23-4.95-.34-.51,1.09.15.75-.23a6,6,0,0,1-1.79-.93c-.34-.38.72.14,1.44.41-4.27-2.36-5.11-1.86-5.81-1.33A10.93,10.93,0,0,0,300.42,44c-.63-.64-1.76-1.56.95-.2-1.46-.89-9-5.2-9.48-4.7a11.3,11.3,0,0,0-2.52-1.28c-3.42-1.72-3.69-1.92-7.09-3.52l.89.55c-1.66,0-2.88-1.21-5.67-2.39l.12,0c-6.08-3.41-2.8-1.07-8.83-4.38l.15.59c-1,.69-5.3-3-9.17-4.08l1.23.79c-2.14-.46-5.09-3.6-7.12-4.45-.42-.25.75.13,1.4.3-5.16-2.56-.92.33-5-1-.62-.6,1.25-.46-1.43-1.52a26.94,26.94,0,0,0-5-1.35,34.83,34.83,0,0,1-6.73-2.13c.75.5,1.48,1-.47.61-2.92-.78-7.57-3.36-10.46-3.21-.36-.17-.48-.27-.48-.34-1.15-.19-3-.59-4.74-.93a22.53,22.53,0,0,0-4.12-.46,6.19,6.19,0,0,0-2.95-1.28c-.7-.18-1.49-.33-2.3-.48s-1.66-.23-2.49-.33c-3.31-.41-6.35-.75-6.2-1.5-2.35-.37-4.72-.67-7.07-1l.2-.13c-1.12-.19-2.07-.33-2.88-.43s-1.5-.09-2.1-.09a19.91,19.91,0,0,0-2.82.18c-1-.23-.25-.28-.16-.35-1.65-.26-2.93-.46-4-.61s-2-.17-2.81-.19a58.28,58.28,0,0,0-6.09.23l-.56-.51A52.22,52.22,0,0,1,168.4,4c-1.52-.16-3.2-.16-4.91-.18a49.76,49.76,0,0,0-5.08.22,1.25,1.25,0,0,1,.71-.24,58,58,0,0,1-5.9.32h-3.07l-3,.09a50.89,50.89,0,0,0-5.14.36,6.9,6.9,0,0,0-3.18,1.14l-4.77,1c6.25-.61-.82.89,1.78.88a29.33,29.33,0,0,1-3.72.28c-.91,0-1.16-.17.33-.45H133c1-1.1-7.75.88-7.69.25a249.83,249.83,0,0,0-35,8.63l1.5.25L88,17.83c-1,.19-1.54-.06,1.2-1A10.31,10.31,0,0,0,84.73,19c-5.37,1.77,1.76-1.6.14-1l-2.18.9.53-.11a20.36,20.36,0,0,1-5,2.55c-2.08.7-1.21,0-2,.33,0-.05-.3,0-1.23.5l-4.71,2,2.1-.28c-2,1.12-4.37,1.94-2,1.53a22.63,22.63,0,0,0-4.23,1.46c-1.82.75-4,1.72-6,2.79s-4,2.07-5.62,2.94-2.78,1.54-3.28,1.73c-1.27,1-2.61,1.77-4,2.68s-2.9,1.78-4.56,2.76c.88-.4,1.71-.14-1.17,1.51.3-1.81-5.41,2.82-8.2,3.51,2.33-.86-7.67,5.58-4,4.15-2.34,1.51-.43-.31-2.35.65-5,4.39-11.86,8.53-17.84,14.19,0,.21,1.23-.49.09.86-1.29.72-2.54,1.48-3.79,2.26-1.12,1.18-.39,1.76-3,3.34.41-.18,1-.44.27.34-1.55,1.28-3,2.71-4.44,4.1S-4.59,77.47-5.95,79s-2.76,3-4.12,4.55L-14,88.26c-1.34,1.56-2.57,3.21-3.86,4.82s-2.59,3.19-3.82,4.84-2.52,3.24-3.82,4.83S-28,106-29.35,107.58c1.53-1.65.73-.41-.2,1,.68-.87.35.26.67.21-1.48,1.74-2.79,3.6-4.2,5.41,0,.71-1,2.23-1.88,3.79s-1.69,3-1.59,3.47l1-1.93c-.75,2.86,3.39-2.67,4-1.77.47-1.57,1.85-3.19,3.31-5a24.27,24.27,0,0,0,4.07-6.35c.81-.84-.29,1,.24.61a9,9,0,0,1,1-2.14A29.7,29.7,0,0,1-20.81,102l-.11.33c1.2-1.69,2.25-3.12,3.26-4.42s2-2.42,3-3.59c2-2.38,4.23-4.67,7.34-8.12l-.8.21a17.64,17.64,0,0,1,2.48-2.27c.52-1.09-.44-.06-1.43,1S-9,87.29-8.59,86.23C-7.4,85.5-5,83-2.64,80.45s4.75-4.76,5.75-5c2.17-2.17-1,.24,1.16-1.92l.8-.34.3-.81C6.89,71,7.88,70.6,8.1,70.73c-.37.31-1,1-1.32,1.38a33.18,33.18,0,0,0,3.53-3.2c1.16-1.13,2.18-2.11,2.55-2.37l-2.34,1.81c6-5.84,14.27-11.92,20.52-17.1l-.64.17c4.84-3.9,4.16-2.71,9.76-6.57L40,45a24.07,24.07,0,0,1,4.1-3c-1.33,1.11,3-1.24,1.25.18,5.53-3.83,2.63-2.07,6.09-5l1.08-.18a16.8,16.8,0,0,1,4.12-3c-2.3,1.61,2.17-.54-.37,1.33a44.42,44.42,0,0,0,7.45-3.81,12.57,12.57,0,0,1,5.09-2.06c2.53-2.33-5.83,2.11-4.26,1.13-1.54.36,2.11-1.84,4.19-2.71S72.8,27.57,78,25.3c-.52.22-.53.31-1.05.53,2.05-.64,3.74-1.94,6.35-2.49,1.15-1.11,3.19-1.2,3.31-2.1l-4.84,2.08c1.35-.64,2.6-1.43,4.1-2.23A25.7,25.7,0,0,1,91.62,19a19.27,19.27,0,0,1-2.54,1.41c1.44-.26,2.57-1.06,4-1.33-.07.45-1.57,1-3.39,1.67-.92.33-1.91.68-2.86,1.05A20.53,20.53,0,0,0,84.39,23a17.53,17.53,0,0,0,3.14-1.26c1-.44,1.71-.69,1.1,0A8.88,8.88,0,0,1,92.41,20c.77-.23,1.58-.49,2.42-.79a14,14,0,0,0,2.58-1.12l-.1.53a22.21,22.21,0,0,1,2.79-1.16l-1.77,1.19a16.92,16.92,0,0,1,4.36-1.36,23.17,23.17,0,0,0,4.36-1c-6.06,1.66-1.51-.18-4.18.19,3.67-1.33,4.83-1.33,6.11-1.3a21.48,21.48,0,0,0,6.88-1c-1.13.34-4.36.73-2.62.1a36.38,36.38,0,0,1,4.83-.59c5.61-1.23-1-.32,1.37-1.08,2,.19,2.73-.77,5.18-1.44l.1.47A30.1,30.1,0,0,0,127.8,11a1.72,1.72,0,0,0,.87-.46c.31-.29.55-.57,3.5-.85l-2.37,1,3-.65-.55.64a22.81,22.81,0,0,1,3.78-.83c1.08-.13,2.16-.2,3.8-.32-.8-.24.32-.94,3.22-1.27,2,.13-1.06.55,3,.14A6,6,0,0,1,142.4,9c-.16.17-.88.41-1.05.58a59.24,59.24,0,0,0,6.82-.54,12.72,12.72,0,0,1-1.61,0c2-.37,3.92-.82,5.9-1.1.95.14.21.32-.52.5,1.21-.11,2-.37,3.81-.49-.45.41-.32.81-2.82,1.11l5.65-.69c.38.14,2.92.44,2.19.58a37.38,37.38,0,0,0,5.54-.29,34.2,34.2,0,0,1,6.32,0,6.72,6.72,0,0,1,1.55-.16c1.95.1,3.78.44,5.71.62,1,.1,2,.19,3,.23s2.12.13,3.29.11l2.55,1c3.63.24-3.45-1.28,2.61-.87,4.3.32,1.51.81,3,1.2,1.08,0,2.56-.06,4.26,0a19.41,19.41,0,0,1,5.48,1C202.75,11.77,201.76,11.45,200.54,11.34Zm43.62,10.93c-.86-.18-2.61-.44-3.12-.91C242.15,21.15,242.8,21.65,244.16,22.27ZM307,49.9a8,8,0,0,1-2.4-1.47A16.38,16.38,0,0,1,307,49.9ZM470.22,151.18l-.09,0C468.51,150.06,469.08,150.45,470.22,151.18Zm3.46,2.1c.39.13.4.06.28-.08a8,8,0,0,1-2-.95A4.16,4.16,0,0,0,473.68,153.28ZM75.9,22l.78-.2C75.07,22.64,75.49,22.33,75.9,22Z"/><path class="cls-3" d="M299.87,46.72a.62.62,0,0,1-.21-.41C299.32,46.21,299.27,46.29,299.87,46.72Z"/><path class="cls-3" d="M172.77,8.7h-.14c-.08,0-.12.05-.14.08Z"/><path class="cls-3" d="M418,123.39a9.8,9.8,0,0,1-1.2-1.11C416.72,122.35,417,122.64,418,123.39Z"/><polygon class="cls-3" points="414.9 119.21 415.57 119.66 416.05 118.75 414.9 119.21"/><path class="cls-3" d="M378.55,97.32c3,2.33,1.09,0,3.74,2.16.87.31-2.16-1.78-1.29-1.43C379,97,378.06,96.17,378.55,97.32Z"/><path class="cls-3" d="M381,98.05c.32.17.67.35,1,.52A9.16,9.16,0,0,0,381,98.05Z"/><path class="cls-3" d="M250,25.77l.23-.08a6.26,6.26,0,0,0-1.87-.91Z"/><path class="cls-3" d="M219,15.66l.55.14L218.7,15Z"/><path class="cls-3" d="M192.1,11.35c1.1.16,2.41.25,3.51.43C193.2,11.52,191.9,10.57,192.1,11.35Z"/></g></svg>