<svg id="Layer_1" data-name="Layer 1" xmlns="http://www.w3.org/2000/svg" viewBox="0 0 124.18 160.29"><defs><style>.cls-1,.cls-2{fill:none;stroke:#231f20;stroke-linecap:round;}.cls-1{stroke-linejoin:round;}.cls-2{stroke-miterlimit:10;opacity:0.7;}</style></defs><title>web_light</title><path class="cls-1" d="M120.71,89.94c-1.34-2.46-4.33-1.6-5.06.56-.66,2-1.13,3.52-2.54,1.41s-1.54-13-3.09-18.85-8.79-9.71-10.27-11.82.35-5.41-3.66-8.37-8.4-1.2-8.86,1.41.7,4.08-2.88,3.24-10.18,2.28-14.21,4-6.09-1.84-10.92-2.3-9.08,1.84-10.34-1-3.34-6.43-6.44-6.89-6.9,1-5.29,5.74c-7.59-3.44-18.51-.23-21.16,8.4s.58,14.83,3.22,14.94c-1.61,2.19-5.46,8.77-6.32,15.29-1.33,10,2.37,14.26,2.84,15.92s-4.13,5.58-7.3,14.93-1.75,18.13-.29,19,4.63-.47,4.31-2-2.78-6.82-.64-9.4a21.66,21.66,0,0,0,3.32-5.95c.73-1.84,1.16-2.91,2-5s1.88-3.52,2.77-2.07,6.85,10.2,9.62,12.82a6.91,6.91,0,0,1,2.06,7.12c-.44,1.48-2.21,1.55-2.69,2.81s.37,3,3.32,2.1,2.33-1.92,3.65-2.84,5.72-2.18,4.23-4.66-3.82-.68-8.71-11.47-6.94-24.76-5.61-33.82a6.88,6.88,0,0,1,5.45-6.11c1.76-.19,3.22,1.19,4.52,2.77,1.12,1.34,2.29,2.16,2.58,4.9a22.3,22.3,0,0,0,1.35,3.92,3.09,3.09,0,0,1-.11,2.41A8.77,8.77,0,0,1,38,103.92c-.76,1-1.45,1.27-1.5,2.85s1.66,1.92,2.93,1.21,1.4-1.89,2.52-2.79,2.51-1.69,2.87-3.12c.27-1.08-.62-2-1.5-2.94A2.63,2.63,0,0,1,43.46,96c.51-.31,3.41,2.42,4.13,2.67s-.18,1.63-.61,3.22c-.37,1.4.23,2.81-2.48,5s.49,3.7,1.28,6.56,3.16,4.73,4.83,3.15-1.82-6.16-1.38-8.38,3.7-4.34,3.9-6.86c1.38,1.73,6,8.1,9.73,11.5s3.51,5.06,5,7,5.3,4.54,7.86,6.34c3.46,2.44,3.25,6.16,3.58,11.29s-.38,7.5,4.07,10.57,7.54,2.19,9.18,3.65,1.66,4.87,3.23,5.88,3.61.53,3.44-2.09-1.22-3.36-2.25-5c-1.41-2.27-3.23-2.43-5-3.46s-3.58-3.09-5.33-3.53c-1.36-.34-.67-1.92-.14-3,.83-1.74-.32-4.45.42-5.72s1.54-1.23,2.17.79,4.08,4.26,5.16,5.72,1.57,2.73,5.57,3.36,6.46.3,7.49,1.22a31.75,31.75,0,0,0,3.29,2.45c1,.65,1.59,1.49,3,1.39s1.94-1.38,1.57-2.78-1.66-2-3-2.84-1.18-2.26-3.57-2.46-7.53-.2-11-5.49-2.11-9.41-6.33-11.59-7.61-3.54-8-6.07c5.62,3.58,10,3.11,13.57,2.55s6.3-2.52,7.14.08.31,4.93,2.71,7.32,4.16,3.71,3.88,6.39-2.53,5.34.21,5.76,2.67-1.26,4.15-4.64-3-9.3-4.32-12-.73-3.94,4.27-5.84,4.2-8.57,3.15-13.21-1.06-5.77,1.47-7.24S122.05,92.4,120.71,89.94ZM42.42,78.39C42,79,42.17,79,40,81.47s-1.82,5-3.2,3.15a12.92,12.92,0,0,0-4.83-4.35c-2.25-1.15-2.3-2.21-1.67-2s3.4-.72,4.45-3.12,1.29-5.4-1.63-6.6-7,.57-7.23,3.59S25,75.48,24,76.1s-3.92-1-4.16-5.46,1.18-6.23,2.94-7.94c2.13-2.08,7.64-3.52,12.27-1.46s5.07,3,4.64,3.44-1.45,2,.39,4,1.64,3.47,1.52,5.3C41.45,76.76,42.81,77.76,42.42,78.39Zm7,14.76c-1.07.57-3.31-.91-5.38-2.87s-1.33-3.28.2-4.65,2.11-3,2.93-3.09S50.31,92.65,49.39,93.15ZM76,91.8c.64,5,5.09,11.75,5.21,13.61a7.27,7.27,0,0,1-.69,4.35A2.76,2.76,0,0,1,77,111.15c-2-.47-2.82-2.21-3.28-3.84s-.93-3.72-4.88-3.72-2.73,4.24-3.84,4.47-2.19-2.12-3.45-3.75c-1.5-1.93-3.9-5-5.76-7.59s.12-11.71-.63-14.33c-.83-2.88-2.25-2.83-2.36-5.51s.06-6.21-.28-9-.73-3.86,4.64-3.41,5.26,2.8,9,3.69,7.94-1.56,11.75-3.3,6.77-1.91,7.85-.89c1.57,1.5-2.39,2.31-1,5.53.83,2,2.34,1.14,1.88,4.68a14.35,14.35,0,0,1-4.75,8.63C79.78,84.48,75.31,86.81,76,91.8ZM107.81,96c-1.83,3.75-.19,7.22-1.24,9.84s-1.65,3.57-5.76,4.1-4,5.88-8.86,5.71-7.28-2.59-7.51-3.46c-.33-1.22,1.32-1.76,1.76-4.22s-1.49-9.38-2.76-11.64-1.8-3.17-.43-3.66,3-1.77,3.49-1.38-.5.82-.2,5.09,1.35,6.76,1.78,9.09c.62,3.38-1.55,6.27.53,7s3.63-1.79,3.92-3.68c.37-2.42-.44-5.86-1.18-9.14s2.49-4.48,5.34-9.3,3.19-6,1.26-12c-2.13-6.58-1-9.94.13-10.22,1.29-.34,4.58,1.65,6.27,5s1.05,6.4,1.6,10.2C106.83,89.4,109.65,92.2,107.81,96Zm7,14.64c-.33,2.05-.41,2.83-1.88,3.89s-3.89,2-4.38,1.51c-.75-.69.45-.9,1.71-1.74a5.43,5.43,0,0,0,2.26-4c.23-2,.63-3.57,1.34-3.39S115.14,108.88,114.86,110.6Z"/><path class="cls-1" d="M14,15.85c-1.08,6,4,12.1,10.72,14.6S42,32.73,49.17,31.7c1.46,3.78-1.12,7.5-1.85,11.39A18.15,18.15,0,0,0,56.59,35,8.45,8.45,0,0,1,59,32.34c1.14-.67,2.81-.28,4.2-.14l8.24.85c8.14.83,17.13,1.49,23.69-2.54a15.41,15.41,0,0,0,7-16.08,11.57,11.57,0,0,0-2.36-5.27c-3.08-3.68-8.81-4.88-14.06-5.35A184.76,184.76,0,0,0,66.54,3.4l-22.67.29a92,92,0,0,0-9.26.44A60.3,60.3,0,0,0,24.06,6.45a22.13,22.13,0,0,0-7.12,3.24c-2,1.55-2.61,3.92-3,6.16"/><path class="cls-2" d="M37.68,12.12l.64,8.44A2.7,2.7,0,0,1,38.17,22a1.91,1.91,0,0,1-2.71.46,5.4,5.4,0,0,1-1.74-2.53"/><path class="cls-2" d="M41.87,16.05a17.58,17.58,0,0,0,1.54,6.57c.21.55.53,1.18,1.12,1.24s1.13-.68,1.35-1.34a6.19,6.19,0,0,0-.2-5.08A8,8,0,0,0,44.37,16a5,5,0,0,0-1.74-1.25.42.42,0,0,0-.31,0,.41.41,0,0,0-.16.22,5,5,0,0,0-.36,1.7"/><path class="cls-2" d="M49.81,15.63l-.23,7.64"/><path class="cls-2" d="M49.44,13a3.52,3.52,0,0,0,.58-.09"/><path class="cls-2" d="M53.39,14.58a29.16,29.16,0,0,0,.23,6.92,11.52,11.52,0,0,1,.85-5.72,1.82,1.82,0,0,1,.89-.92,1.51,1.51,0,0,1,1.78,1.07,5,5,0,0,1,0,2.3A21.92,21.92,0,0,0,57,22.59"/><path class="cls-2" d="M68.09,14.82a24.51,24.51,0,0,0,.32,5.26c.11.65.31,1.42.94,1.62a1.46,1.46,0,0,0,1.37-.48A4.81,4.81,0,0,0,71.92,19a10.38,10.38,0,0,0,.19-4.23"/><path class="cls-2" d="M79,18.31a8.87,8.87,0,0,0-1.58-2.69.69.69,0,0,0-.47-.19.56.56,0,0,0-.43.19,1.77,1.77,0,0,0-.76,1.32,1.84,1.84,0,0,0,.16.72,6.32,6.32,0,0,0,1,1.76,8.3,8.3,0,0,1,1,1.25,1.49,1.49,0,0,1,0,1.5,2,2,0,0,1-.65.57,2.49,2.49,0,0,1-1.7.59,1.76,1.76,0,0,1-.78-.37,3.76,3.76,0,0,1-1.12-1.29"/><path class="cls-2" d="M85.17,15.43,82.66,23.1"/><path class="cls-2" d="M82.38,25.32a4.46,4.46,0,0,0-.55.09"/><path class="cls-2" d="M37.68,12.12l.64,8.44A2.7,2.7,0,0,1,38.17,22a1.91,1.91,0,0,1-2.71.46,5.4,5.4,0,0,1-1.74-2.53"/><path class="cls-2" d="M41.87,16.05a17.58,17.58,0,0,0,1.54,6.57c.21.55.53,1.18,1.12,1.24s1.13-.68,1.35-1.34a6.19,6.19,0,0,0-.2-5.08A8,8,0,0,0,44.37,16a5,5,0,0,0-1.74-1.25.42.42,0,0,0-.31,0,.41.41,0,0,0-.16.22,5,5,0,0,0-.36,1.7"/><path class="cls-2" d="M49.81,15.63l-.23,7.64"/><path class="cls-2" d="M49.44,13a3.52,3.52,0,0,0,.58-.09"/><path class="cls-2" d="M53.39,14.58a29.16,29.16,0,0,0,.23,6.92,11.52,11.52,0,0,1,.85-5.72,1.82,1.82,0,0,1,.89-.92,1.51,1.51,0,0,1,1.78,1.07,5,5,0,0,1,0,2.3A21.92,21.92,0,0,0,57,22.59"/><path class="cls-2" d="M68.09,14.82a24.51,24.51,0,0,0,.32,5.26c.11.65.31,1.42.94,1.62a1.46,1.46,0,0,0,1.37-.48A4.81,4.81,0,0,0,71.92,19a10.38,10.38,0,0,0,.19-4.23"/><path class="cls-2" d="M79,18.31a8.87,8.87,0,0,0-1.58-2.69.69.69,0,0,0-.47-.19.56.56,0,0,0-.43.19,1.77,1.77,0,0,0-.76,1.32,1.84,1.84,0,0,0,.16.72,6.32,6.32,0,0,0,1,1.76,8.3,8.3,0,0,1,1,1.25,1.49,1.49,0,0,1,0,1.5,2,2,0,0,1-.65.57,2.49,2.49,0,0,1-1.7.59,1.76,1.76,0,0,1-.78-.37,3.76,3.76,0,0,1-1.12-1.29"/><path class="cls-2" d="M85.17,15.43,82.66,23.1"/><path class="cls-2" d="M82.38,25.32a4.46,4.46,0,0,0-.55.09"/></svg>