<svg id="Layer_1" data-name="Layer 1" xmlns="http://www.w3.org/2000/svg" xmlns:xlink="http://www.w3.org/1999/xlink" viewBox="0 0 210.49 37.23"><defs><style>.cls-1{fill:none;}.cls-2{clip-path:url(#clip-path);}.cls-3{fill:#010101;}</style><clipPath id="clip-path"><rect class="cls-1" x="1.31" width="207.74" height="34.6"/></clipPath></defs><title>web_light</title><g class="cls-2"><path class="cls-3" d="M128.89,31.37l-1.07.16C128.33,31.47,128.65,31.42,128.89,31.37Z"/><path class="cls-3" d="M136.63,30.78l.17-.21C136.46,30.71,136.32,30.8,136.63,30.78Z"/><path class="cls-3" d="M194.6,7l.45-.12.67-.89Z"/><path class="cls-3" d="M194.6,9.08l-1.9.79A18.66,18.66,0,0,0,194.6,9.08Z"/><path class="cls-3" d="M86.79,29l-1.3.24C87.41,29.59,86.6,29.23,86.79,29Z"/><path class="cls-3" d="M131.6,26.58c-.63.13-.89.23-.87.33C131.38,26.79,131.74,26.68,131.6,26.58Z"/><path class="cls-3" d="M19.53,7.75l-.17-.12C18.37,7.38,18.78,7.54,19.53,7.75Z"/><path class="cls-3" d="M110.35,31.38c.83.19,1.67.34,2.5.51-3.08.52-5.29.1-2.94.82.22-.66,2.68-.56,5.15-.5s4.93,0,5.11-.66l1.67.29c-.48,0-.55.07-1,.06a4,4,0,0,0,3-.25,7.59,7.59,0,0,1,3.63-.68c1.45,0,2.48.19,1.5.4,1.08-.15,2.15-.36,3.22-.55.95,0,.73.21-.21.26,1.65-.14,3.29-.36,4.93-.56l0,.05c.69-.27,2.23-.83,3-1.06,1.27,0-.61.22-.27.35.89-.22,1.78-.45,2.67-.71,1.15.16-1,.89-2.93,1.06a3.4,3.4,0,0,0,2.83.05,16.82,16.82,0,0,1,5-.86c-.85.22-1.69.46-2.54.65,1.79.45,3.76-.16,6.77-.38-.38-.05-1.89,0-3-.1s-1.67-.33-.23-.78a11.13,11.13,0,0,0,3.45-.9c.13.49,1.64,0,3.53-.56l0,.65c2-.72,1.76-1,2.89-1.65,2.29-.63,2.91-.31,3.57-.1,3.65-1.14-2.74.1,1.48-1.48a34.59,34.59,0,0,0,8.38-3.66c2.12-.65-.2.51.6.37.54-.4,1.06-.84,1.58-1.26.44-.18.37,0,.33.13,1.41-.86-.14-.63,2.13-1.86.17-.47,1.46-.8,3-1.29a13.31,13.31,0,0,0,4.64-2.27c.78-.22-.15.52.18.63a46.9,46.9,0,0,0,5.89-4.49c1-.37,1.9-.78,2.85-1.18-2.18.72,0-1.2,1.9-2.9-.8.22-1.48.39-1.92.54,1.08-.77,2.14-1.57,3.21-2.36.46-.16.24.24-.17.81l.54-.52c1.33-.54.9.16.22,1l-1.43.41c-.64.85-1.2,1.7-.84,1.91a8.17,8.17,0,0,1,1-.83c-.16.22-.25.39-.12.38s.43-.35.9-.83l1.15.13,0-.35c1.57-.78,3.11-1.61,4.67-2.41,2.75-2.65,4.89-5.29,9.59-8.87-.91,1.26.22.88.51,1.44-1.71.36-3.64,2.81-6.28,4.4,1.38-.84,1.25-.39,1-.08,1.42-1.18,2.82-2.36,4.22-3.56.18.49,1.18-.32,2.47-1-1.45-.21,3-2.9,4.59-4.44.31.2.07.79-2.2,2.29,2.89-1.11,2.49-3.2,5.27-4.37-.54.39-.86.55-1,.85,1.09-1.14,4.33-3.13,3.77-2.38l-.54.39c1.86-1.19,4.54-3.21,6.78-5s4-3.45,4-4a3.13,3.13,0,0,1,.05,1.46c1.51-2.34,3.08-4.61,4.53-7-.1,1,3,.74.43,3.33a19.18,19.18,0,0,0,3.56-2.85c-.63.36-2,.27-1.32-.39a36,36,0,0,0,4.76-2.31c-.94.54-.72-1.09.63-2.11-.1.3.82.8.41,1.27l2.61-3.48c-.7.81.45.86,1.39.52-.46.12,2.84-2.29,3.63-3.1l-1.54.94c3.77-2.91,2.61-4.23,6.27-7.19-.28.54-.16,2,1.78.57.23-.57.73-1.88,1.52-3.42a22,22,0,0,1,3.25-4.9l.82-.27L269-50.8a76.33,76.33,0,0,1-5.8,9.55c1.53-1,.65,0,2.64-1.78.9-.39-.78,1.33-1.38,1.83,1.62-1.28,3.21-2.62,4.82-3.93-.65-.33,3.14-3.65,2.59-3.91l-4.62,5c-.65-.33,1.68-4,5.06-6.81,1-.54.17,1.44.38,1.55A18.44,18.44,0,0,1,276-52.56l-1.17,1.5c2-1.41,2.4-3.31,5-4.84.78-.66,2.82-1.42,2.68-1.84-1.74.57-3.58-1-3.16-2.14.29-.2,4.4-3.06,5.51-3.57,1.64-.7-.86,2.74.54,2.16-.08-.18.44-1,.67-1.29.89-.6.07.72,1.72-.91-.17-.74,3.45-3.22.41-1.17,1.5-1.71,1.82-1.57,3.71-3.45-.91.27.67-2.74,2.16-4.46,0,.22.55,0,.8-.08,1.68-1.59,3-2.77,4.34-3.92s2.53-2.35,4-3.9c.4-.16,2-1.52,1.59-.68a10.31,10.31,0,0,1,1.5-2.07c2.23-1.44-2,2.2-.13,1.28-.16-.4,2-2.85,3.18-4.39-.86,0-3.16,3.07-4.31,4.6-.61-.58,1.07-3.57,3.94-7.07,2.33-2.73,1.46-.75,1.81-1.28,4.69-4.85,2.82-5.22,7.07-8.9,1.9-1.27.85.64,1.47.54-1.83,2.29-3.3,3.07-4.63,4.54l1.85-1.62a15.23,15.23,0,0,1-2.57,3,48.3,48.3,0,0,0,5-5l3.44-3.66c1.12-1.23,2.2-2.37,3.15-3.27.47-.82,1.39-2.14.73-1.72l-1,1.29c-1.32.85,1.6-2.72.07-1.29a33,33,0,0,1,4.74-6.2l.85,0a6.59,6.59,0,0,0-2.06,2.06c.64-1.16,3.8-3,4.08-4.65-.58.46-1.14.94-1.73,1.38,1.21-1.88,2.44-4.41,4.35-6.39-1.26.57-.35.53-2.14,1.57,1.76-.73-4.53,5.37-2.08,3.89-1.94,1-2.56,2.38-4.81,3.89.21.07.9-.45-.69,1.22a3.71,3.71,0,0,1-.2.5l-.12.1.1-.08c0,.1,0,.11,0,0a4.34,4.34,0,0,1,1-.68c-.41,1.17-2.84,3.92-3.48,5-1,1,.2-.58-.45-.17l-1,1.64c-.45-.16-3,2.22-1-.37-.64.73-1.3,1.43-2,2.14a23,23,0,0,0-3.86,3.93c-1,.93-2,2.87-1.43,1.76l-2.89,3.52-.11,0c-3.09,3.25-5.9,7.16-10,10.28a33.88,33.88,0,0,1-3.85,4.07l-.63.07c-1.3,1.45-4.45,3.78-4.76,4.65-1.12.36-2.84,2-4.61,3.75s-3.65,3.69-4.95,4.8l.25.46c-1.75,1.57-3.3,3.2-5.31,5.33l.43.21a21.22,21.22,0,0,1-3.46,3.14c-1.43,1.1-3,2.29-4.51,3.61a4.86,4.86,0,0,1,1.48-1.33A25,25,0,0,0,265-48.39a24.52,24.52,0,0,1-5.25,4.64,8.3,8.3,0,0,1-2,1.66c.07-.07.14-.13.19-.19l-.35.28c-.41.24-.84.48-1.3.76a8.82,8.82,0,0,0,1.12-.61c-.63.53-1.56,1.38-2.43,2.25l-.72,0-.21.19c-1,.63-.6.8.13.66a14.21,14.21,0,0,0-1.07,1.27c-1.25,0-2.32,2.27-3.88,2.48-.39.83-4.67,4.07-4.66,5.14-.1-.06-.42.12.1-.29a15.21,15.21,0,0,0-3.1,2.5l-.84-.13-1.85,2.51c-1.66.83-2.39,1.13-1.25-.36-3,3.24-2.66,2.35-5.2,5.16l-.1-.43c-1,.81-2.44,2.5-3.28,2.72a20.37,20.37,0,0,0-3.15,1.91l-2.19,1.57c-.79.55-1.63,1.14-2.51,1.74-3.49,2.44-7.45,5.22-10.77,7.13,1.88.13-3.21,1.57-3,2.48-.52,0-1.49.49-.6-.4-3.07,2.39-5.09,2.86-6.93,5-.52,0,.48-.8.06-.72a3.91,3.91,0,0,1-1.33,1c-.43.07.35-.5.8-.93-3.31,2.15-3.2,3.09-3,3.91a7.51,7.51,0,0,0-3.72,2.5c-.73.13-1.87.49.2-.84-.61.33-2.48,1.34-4.18,2.31s-3.23,1.9-3.14,2.21a7.73,7.73,0,0,0-2,1.12c-2.75,1.44-3,1.48-5.73,2.91l.81-.28c-.74,1.22-2.21,1.27-4.39,2.39l0-.1c-5.37,1.79-2.12,1.27-7.49,2.8l.46.34c-.05.58-1.26.87-2.81,1.21a22.89,22.89,0,0,0-4.92,1.36l1.19-.12a6.72,6.72,0,0,1-3.36.46,21.73,21.73,0,0,0-3.45,0c-.39,0,.54-.29,1-.49-4.57.58-.41.76-3.67,1.77-.7-.19.58-1-1.66-.57-1.14,0-6.3,2.44-9.52,2.22.72.17,1.44.32-.11.74-2.42.43-6.65-.19-8.78.74-.32,0-.44-.11-.46-.17-1.84.36-6,.65-7.17,1.1-.88-.8-3.78-.58-6.48-.44s-5.19.25-5.12-.5c-1.92-.08-3.85-.16-5.76-.31l.16-.14a19.38,19.38,0,0,0-6.33,0c-.84-.2-.2-.27-.12-.34-2.67-.46-4.13-.71-5.5-.83s-2.66-.09-5-.06l-.39-.56a27.16,27.16,0,0,1-4.93-1c-1.2-.29-2.52-.58-3.88-.85a34.15,34.15,0,0,0-4.06-.63c.06-.05.19-.12.61-.11a26.65,26.65,0,0,1-4.68-.92c-1.59-.45-3.2-.9-4.67-1.38-3-.92-5.49-1.57-6.77-1l-3.92-.6c4.89,1.47-.94.56,1,1.4-2-.4-4.85-2-2.46-1.34l.35.19c1.12-.65-6-2.1-5.68-2.69A258.91,258.91,0,0,1,22.8,5.39l.71,1.09-3-1.31c-.72-.52-.83-1,1.3,0A7.51,7.51,0,0,0,18,4c-4.05-2.14,2-.05.71-.64l-1.76-.73.36.26A12.12,12.12,0,0,1,13,1.52c-1.54-.9-.63-.8-1.25-1.13,0,0-.18-.17-1-.48C9.51-.68,8.31-1.34,7.09-2L8.3-.71c-1.76-.57-3.45-1.78-2-.34a16.31,16.31,0,0,0-3-2.07c-1.37-.83-3-1.74-4.67-2.61C-4.65-7.55-7.82-9.22-8.48-9.8a44.45,44.45,0,0,1-7.31-3.85c.61.5.69,1.3-1.61-.16,1.54-.64-4-3-5.37-5,1.37,1.55-6.72-3.83-4.53-1.47-1.9-1.25.13-.5-1.19-1.65-4.9-2.32-10.12-6.32-16.1-9.39-.18.11.68.88-.71.43L-48-33.3c-1.22-.54-1.55.33-3.43-1.32.25.28.6.72-.22.37A105.29,105.29,0,0,0-70-42.37c-1.59-.58-3.24-1-4.86-1.54l-2.42-.78c-.81-.25-1.64-.45-2.46-.68-1.64-.44-3.27-1-4.91-1.41s-3.3-.84-5-1.32c1.76.64.55.47-.84.25.89.23-.08.42.07.69a26.49,26.49,0,0,0-2.77-.65L-96-48.4c-.54.32-2,.08-3.51.14s-2.88,0-3.17.31l1.79-.1c-2.36.74,3.27,1.64,2.84,2.66,1.31-.31,3,.16,4.86.6.47.11,1,.22,1.44.31s1,.25,1.48.34a10.7,10.7,0,0,0,3.16.15c.89.35-.84.17-.38.47a8.73,8.73,0,0,1,4.72.66l-.29,0c1.64.38,3.05.73,4.34,1.07s2.43.84,3.61,1.27,2.39.85,3.72,1.43l4.54,2-.35-.64a10.28,10.28,0,0,1,2.42,1.31c1,0,0-.43-1.12-.89s-2.19-.87-1.25-.94C-65.42-36.7-56.5-33.71-55.67-32c2.26,1.09-.43-.81,1.84.28l.47.56.74-.06c1.44.82,2,1.54,1.95,1.79a14.38,14.38,0,0,0-1.43-.64c1.73,1.3,5.42,2.65,6,3.14-.68-.45-1.36-.88-2-1.3,6.21,3,13.32,7.55,19.38,10.47l-.32-.45c4.61,2.26,3.39,2.31,8.32,5l-.2-.06a20.53,20.53,0,0,1,3.74,1.86c-1.36-.5,2,1.81.29,1.1,5,2.44,2.56,1.1,6.15,2.23l.55.75A12.65,12.65,0,0,1-6.31-5.79C-8.48-6.64-5-4.42-7.49-5.32-2.73-1.68.62-1.82,2.46.51,5.35.86-1.81-2.39-.35-1.88c-1-.9,2.32.39,3.93,1.32s2.25,2.67,6.57,4.7c-.43-.21-.49-.15-.92-.36,1.51,1,3.31,1.2,5.12,2.49,1.38-.06,2.58,1.2,3.22.62L13.52,5.26c2.35.82,4.81,1,8.38,3a12.55,12.55,0,0,1-2.37-.48c1,.69,2.18.75,3.22,1.46-.31.29-1.55-.18-3.05-.79a25.93,25.93,0,0,0-4.56-1.69c1,.83,4.82,1.53,3.26,1.77,2.19-.22,4.27,2,7.58,2.44l-.38.37A16.5,16.5,0,0,1,28,12l-1.81-.05c2.63.47,4.52,2.31,7,2.89-4.94-1.82-.91-.94-2.86-2.06,3.14.87,3.91,1.45,4.75,2.15s1.75,1.49,5.24,2.55c-1-.25-3.4-1.47-1.88-1.17a24.06,24.06,0,0,1,3.67,1.82c4.61,1.4-.55-.68,1.49-.33,1.38,1,2.32.49,4.38,1l-.13.46c5.15,1.9,1.68-.54,6.29,1.23L52,20.46,54.5,21l-.66.38A26.46,26.46,0,0,1,60.07,23c-.53-.51.56-.72,2.91-.17,1.54.67-1,.22,2.35,1a4.17,4.17,0,0,1-3.09-.51c-.19.11-.82.11-1,.22a33.61,33.61,0,0,0,5.55,1.44,10.17,10.17,0,0,1-1.29-.43c1.67.19,3.34.33,5,.47.73.35.09.35-.54.36,1,.17,1.73.1,3.18.38-.45.3-.45.72-2.54.44,1.58.21,3.15.42,4.74.57.28.23,2.31.94,1.67,1,2.55.77,6.51.44,9.91,1.31a5,5,0,0,1,1.31,0c3.23.59,6,1.5,10,1.41l2.12.95c3.06.15-2.89-1.19,2.2-.94,3.61.12,1.29.72,2.53,1a24.86,24.86,0,0,1,8.25,0C112.23,31.52,111.37,31.4,110.35,31.38ZM148,28.79c-.7.24-2.08.83-2.67.65C146.1,28.74,146.78,28.88,148,28.79ZM199.76,4.86a5.56,5.56,0,0,1-2,1.15A11,11,0,0,1,199.76,4.86ZM317.48-99.53l0,.07C316.21-98.41,316.65-98.77,317.48-99.53Zm2.42-2.3c.17-.3.11-.32,0-.26a5.93,5.93,0,0,1-1.17,1.41C318.94-100.77,319.3-101,319.9-101.83ZM11.3.39l.53.4C10.45.28,10.87.35,11.3.39Z"/><path class="cls-3" d="M194.62,8.82a.53.53,0,0,1-.41-.06C194,9,194.05,9.06,194.62,8.82Z"/><path class="cls-3" d="M87,29l-.11,0a.22.22,0,0,0-.13.07Z"/><path class="cls-3" d="M153.87,28.78l.12-.19a4.54,4.54,0,0,0-1.76.24C152.78,28.83,153.32,28.79,153.87,28.78Z"/><polygon class="cls-3" points="126.36 32.12 126.83 32.11 125.93 31.56 126.36 32.12"/><path class="cls-3" d="M103.22,32.09c.94.11,2,.07,3,.18C104.16,32.2,103,31.34,103.22,32.09Z"/></g></svg>