<svg id="Layer_1" data-name="Layer 1" xmlns="http://www.w3.org/2000/svg" xmlns:xlink="http://www.w3.org/1999/xlink" viewBox="0 0 380.1 225.77"><defs><style>.cls-1{fill:none;}.cls-2{clip-path:url(#clip-path);}.cls-3{fill:#010101;}</style><clipPath id="clip-path"><rect class="cls-1" x="0.31" y="3" width="379.8" height="223.38"/></clipPath></defs><title>web_light</title><g class="cls-2"><path class="cls-3" d="M172.51,60l-.92.48C172,60.27,172.31,60.12,172.51,60Z"/><path class="cls-3" d="M179.49,57.34l.11-.25C179.31,57.31,179.2,57.43,179.49,57.34Z"/><path class="cls-3" d="M311.5,15.44c-1.55-.07-3.32-.3-3.06.1l.54.34A11.41,11.41,0,0,1,311.5,15.44Z"/><path class="cls-3" d="M237.05,35.94h.46l.86-.7Z"/><path class="cls-3" d="M236.53,38l-2,.3A15.76,15.76,0,0,0,236.53,38Z"/><path class="cls-3" d="M135.43,76.86l-.87.93C136.23,77,135.39,77.12,135.43,76.86Z"/><path class="cls-3" d="M376.57,5.66a29.49,29.49,0,0,0-3.27.08C374.89,5.82,376.2,6.06,376.57,5.66Z"/><path class="cls-3" d="M173.59,54.64c-.56.3-.78.48-.73.56C173.44,54.9,173.76,54.69,173.59,54.64Z"/><path class="cls-3" d="M369.55,6.22c.24,0,.46,0,.7,0a27.75,27.75,0,0,1,3.05-.5A10,10,0,0,0,369.55,6.22Z"/><path class="cls-3" d="M26.73,172.63l-.21.27S26.63,172.83,26.73,172.63Z"/><path class="cls-3" d="M6.18,210.79c.09-.43.27-1.11.44-1.75A14.28,14.28,0,0,0,6.18,210.79Z"/><path class="cls-3" d="M360.27,10.13h-.08C360.49,10.19,360.44,10.18,360.27,10.13Z"/><path class="cls-3" d="M76.92,112.29l-.19.1C76.09,113.15,76.4,112.86,76.92,112.29Z"/><path class="cls-3" d="M287.64,25l.1,0h-.14Z"/><path class="cls-3" d="M284.31,26.09A6.7,6.7,0,0,1,287.6,25l-1.4-1Z"/><path class="cls-3" d="M156,66.92l2.39-.6c-2.45,1.75-4.49,2.38-2.17,2-.23-1.39,8.64-3.84,8.46-5.19l1.59-.34c-.43.16-.47.27-.89.42,3.14-.56,1.77-1.8,5.6-3.11,1.35-.41,2.33-.58,1.5-.08l2.8-1.45c.86-.31.73,0-.12.3,1.47-.61,2.94-1.23,4.42-1.81v.05c.56-.44,1.89-1.29,2.55-1.68,1.21-.24-.52.35-.17.4l2.37-1.24c1.13,0-.81,1-2.54,1.63,2.8.43,1.93-1.12,7.23-2.16l-2.3,1c1.78.18,3.52-.73,6.34-1.23-.71,0-5.73.76-3.14-.52A11.1,11.1,0,0,0,193.13,52c.17.45,1.56-.17,3.34-.81l.09.65c1.88-.84,1.62-1.1,2.66-1.76,2.18-.68,2.79-.37,3.43-.15,3.51-1-2.66,0,1.42-1.42a43.22,43.22,0,0,0,8.26-3.1c2.1-.45-.23.49.55.43l1.64-1.07c.44-.13.35.06.3.16,1.45-.68-.07-.65,2.26-1.59.21-.43,1.51-.59,3.1-.84A13.78,13.78,0,0,0,225,41.14c.78,0-.24.48.06.65a57,57,0,0,0,6.51-3.08l3-.45c-2.23.17.28-1.18,2.5-2.32-.81,0-1.5,0-2,0l3.65-1.44c.48,0,.16.28-.38.72l.65-.35c1.41-.14.81.4-.05,1l-1.46,0c-.82.64-1.56,1.32-1.26,1.62a6.1,6.1,0,0,1,1.17-.53c-.21.17-.34.31-.21.33s.5-.22,1.06-.56l1,.43.13-.33,5-.92c3.32-1.65,6.11-3.51,11.63-5.33-1.25.89-.08.91,0,1.53-1.7-.22-4.26,1.45-7.19,2.12,1.53-.35,1.27,0,.92.23l5-2c0,.52,1.19.07,2.59-.1-.63-.33.28-.78,1.62-1.2s3.1-.84,4.12-1.25c.21.29-.21.75-2.81,1.31,3,0,3.39-2.05,6.34-2.13-.63.17-1,.2-1.19.43,1.4-.66,5.06-1.32,4.28-.82l-.63.16c2.11-.46,5.29-1.25,8-2.05s5-1.48,5.2-2a3.24,3.24,0,0,1-.54,1.34l6.88-4.47c-.5.86,2.41,2-1,3.18a17.8,17.8,0,0,0,4.35-1c-.71.05-1.93-.65-1-.92a36.92,36.92,0,0,0,5.17,0c-1.05.08-.16-1.32,1.48-1.6-.22.22.37,1.08-.2,1.31l3.82-1.9c-1,.4,0,1,1,1.1-.46-.14,3.5-.68,4.56-1l-1.77.09c4.6-.74,4.21-2.45,8.76-3.3-.51.34-1.09,1.68,1.24,1.36a24,24,0,0,1,8.16-4.72l.84.19,3-.91a85.93,85.93,0,0,1-9.69,5.15c1.76-.05.55.3,3.11-.18,1,.14-1.31.7-2.06.85l6-.85c-.38-.62,4.46-1.47,4.13-2l-6.38,1.83c-.38-.62,3.43-2.54,7.7-3.17,1.12.08-.61,1.32-.48,1.53a17.44,17.44,0,0,1,4.37-1l-1.74.67a11.08,11.08,0,0,0,3.12-.82,8.68,8.68,0,0,1,3.54-.52c1-.1,3.07.41,3.18,0-1.72-.51-2.41-2.81-1.42-3.54.35,0,5.29-.06,6.47.14,1.71.35-2.22,1.79-.77,2.09,0-.19.9-.55,1.26-.68,1.05,0-.35.63,1.89.21.27-.73,4.57-.64,1-.73,2.17-.52,2.35-.23,4.93-.62-.88-.33,2.12-1.78,4.31-2.26-.11.19.42.35.67.42,4.53-.51,7-.52,11.21-1.05.41.11,2.47.05,1.64.45a8.76,8.76,0,0,1,2.42-.64c2.59.32-2.89.39-.89.9.12-.41,3.31-.9,5.14-1.34-.64-.54-4.31.33-6.14.78-.11-.85,3-2.06,7.42-2.91,3.49-.58,1.58.38,2.18.2,6.62-.53,5.48-2.08,11-2,2.23.36.2,1.06.72,1.41-2.85.42-4.43.1-6.37.3H391a15.27,15.27,0,0,1-3.84.56,51.61,51.61,0,0,0,6.92-.42c3.2-.24,6.81-.52,9.38-.51.89-.25,2.44-.56,1.68-.72l-1.6.21c-1.52-.31,3-.85.93-.88a32,32,0,0,1,7.61-1.16l.61.56a6.4,6.4,0,0,0-2.86.06,12.1,12.1,0,0,1,3,0A5.55,5.55,0,0,0,416,3.54l-2.17-.3A35.85,35.85,0,0,1,421.32,2c-1.27-.53-.62.11-2.59-.49,1.72.78-7,.37-4.2,1.13-2-.72-3.44-.1-6.08-.6.1.2.94.31-1.34.4a3.1,3.1,0,0,1-.48.22h0c-.1,0-.11,0,0,0a4,4,0,0,1,1.18.22c-1.1.55-4.71.83-5.91,1.17-1.36,0,.54-.28-.21-.43l-1.8.5c-.21-.43-3.64-.45-.49-1l-2.86.21a20.47,20.47,0,0,0-5.45.32c-1.35,0-3.35.85-2.21.38l-4.45.75-.05-.11c-2.22.2-4.47.62-6.81,1a44.73,44.73,0,0,1-7.34.53,38.74,38.74,0,0,1-5.48.82l-.54-.32c-1.88.38-5.77.35-6.53.85-2.21-.82-9.27,1.08-12.64,1.41l-.05.52c-2.3.32-4.48.8-7.3,1.43l.24.42c-2.4.7-6.36.71-10.23,1.44a4.51,4.51,0,0,1,1.94-.37c-4.8-.18-9.64,2.44-14,2.45a8.4,8.4,0,0,1-2.53.49l.25-.08-.43.08-1.49.06a10.42,10.42,0,0,0,1.26,0c-.8.17-2,.47-3.18.82l-.6-.37-.27.06c-1.21.06-.9.42-.21.65a11.75,11.75,0,0,0-1.52.6c-1.1-.58-3.08.88-4.54.32-.73.56-5.95,1.5-6.4,2.46-.07-.1-.43-.08.21-.22a14.83,14.83,0,0,0-3.82.9l-.69-.47L289,21.63c-1.83,0-2.61,0-1-.87-4.05,1.65-3.36,1-6.78,2.53l.09-.42c-1.28.3-3.2,1.27-4.05,1.12-3,0-14.12,3.35-21.58,4.57,1.7.74-3.52.42-3.57,1.37-.5-.15-1.55,0-.43-.57-3.64,1.27-5.7,1.1-8.06,2.53-.49-.15.69-.6.27-.66a3.93,3.93,0,0,1-1.55.5c-.42-.05.48-.37,1-.65-3.78,1.09-3.93,2-4,2.85a7,7,0,0,0-4.18,1.44c-.74,0-1.92,0,.39-.77-1.32.35-8.14,2-8.09,2.68a7.61,7.61,0,0,0-2.18.68c-3,.85-3.24.85-6.11,1.81l.83-.16c-.91,1.1-2.34.94-4.63,1.78l0-.1c-5.48,1.19-2.21,1-7.65,2.09l.43.37c-.16,1.14-4.83.91-7.75,2.3l1.18-.11c-1.54.89-5.07.26-6.78.71-.39,0,.53-.34,1-.57-4.55.92-.36.78-3.55,2-.7-.11.49-1.09-1.71-.37-1.18.14-5.95,3.26-9.11,3.78.74,0,1.48,0,0,.74-2.25.93-6.53,1.38-8.29,3-.31,0-.45,0-.48,0-1.67.88-5.53,2.53-6.39,3.39-1.11-.45-3.72.84-6.12,2s-4.55,2.43-4.83,1.72c-1.75.78-3.51,1.55-5.24,2.38l.08-.21a17.54,17.54,0,0,0-5.45,3.15c-.82.25-.31-.13-.28-.23-5,2-5.46,2.28-9.16,4.94l-.63-.23c-1,.8-7.31,2.75-11.68,5.79,0-.08.07-.21.41-.47-4.95,3.26-13.1,5.74-14,8.44l-3.13,2.38c4.41-2.47-.23,1.06,1.71.25-1.66,1.07-4.63,2.26-2.63.86l.37-.13c.26-1.28-5.48,3.09-5.71,2.47-8.32,5.46-16.51,10.74-23.84,16.57l1.28-.12-2.53,2c-.77.41-1.25.29.56-1.17A7.3,7.3,0,0,0,72.89,112c-3.7,2.68.82-1.79-.27-.92l-1.42,1.26.38-.21a15.71,15.71,0,0,1-3,3.37c-1.41,1.07-1,.27-1.51.71,0,0-.23.1-.82.7-1,.91-2.1,1.77-3.09,2.72.53-.24,1-.48,1.6-.7-1.16,1.43-2.82,2.64-1,1.8-1.33.61-4.21,3.14-6.81,5.77s-5,5.26-5.67,5.81a46.36,46.36,0,0,1-5.18,6.34c.62-.49,1.37-.45-.39,1.56-.4-1.62-3.57,3.42-5.71,4.5,1.67-1.16-4.51,6.2-1.94,4.31-1.44,1.72-.48-.19-1.77,1-2.78,4.58-7.12,9.41-10.45,15.16.09.18.91-.62.38.72-.89.82-1.69,1.7-2.53,2.56-.57,1.18.29,1.55-1.42,3.33.29-.23.74-.55.35.24l-1.32,2.05c-.42.69-.8,1.41-1.19,2.13q-1.17,2.16-2.29,4.37c-.78,1.45-1.4,3-2.07,4.5l-2,4.57L12,194.28c-.59,1.56-1.28,3.08-1.83,4.64S9,202,8.35,203.58l-1,2.3-.93,2.31c.8-1.63.52-.47.17.85.31-.83.42.14.69,0l-2.09,5.15c.39,1.13-1.21,5.8-.72,6.49L4.76,219c.25,2.41,2.29-2.81,3.15-2.25-.18-1.35.61-2.9,1.35-4.65a15.66,15.66,0,0,0,1.54-5.88c.48-.82,0,.84.41.43a10.6,10.6,0,0,1,1.19-4.56v.28a56.92,56.92,0,0,1,2.95-7.64L17,191.14l2.19-4.35-.65.31a14.58,14.58,0,0,1,1.4-2.33c.11-2-1.89,4.1-1.92,2.24.9-.77,2-3.39,3.3-5.81s2.5-4.8,3.32-5.18c1.23-2.14-.84.37.39-1.78l.58-.42,0-.73c.86-1.38,1.58-1.91,1.83-1.84-.22.33-.49,1-.68,1.38a20,20,0,0,0,2-3.28,20.24,20.24,0,0,1,1.39-2.43l-1.41,1.91c3.3-5.89,8.13-12.57,11.68-18.07l-.48.26c2.7-4.23,2.57-3.07,5.92-7.41l-.08.19a19.13,19.13,0,0,1,2.35-3.34c-.71,1.22,2.1-1.63,1.12-.07,3.27-4.33,1.52-2.22,3.29-5.45l.83-.37a10.05,10.05,0,0,1,2.36-3.37c-1.34,1.84,1.62-.87.17,1.23a28.62,28.62,0,0,0,4.74-4.81A8.43,8.43,0,0,1,64,124.79c1.2-2.57-4,3-3.07,1.86-1.14.62,1-2.07,2.42-3.25s3.13-1.24,6.58-4.3c-.34.3-.32.38-.66.68,1.46-1,2.29-2.53,4.16-3.6.51-1.23,2.14-1.72,1.9-2.55-1,1-2.12,1.88-3.13,2.87,1.67-1.73,2.85-3.86,6.19-6.06a12.22,12.22,0,0,1-1.46,1.85c1-.55,1.61-1.55,2.7-2.12.22.82-3.87,3.42-5.46,5.52,1.17-.53,3.38-3.54,2.93-2.06a6,6,0,0,1,2.3-2.48,14.33,14.33,0,0,0,3.26-2.85l.12.5a16,16,0,0,1,1.75-1.71l-.93,1.49a11.2,11.2,0,0,1,2.92-2.25,16.6,16.6,0,0,0,3-2c-4.1,3-1.26.21-3.21,1.2,2.35-2.11,3.28-2.38,4.29-2.67s2.11-.64,5-2.69c-.76.57-3.1,1.8-2,.76a23.65,23.65,0,0,1,3.54-1.77c3.79-2.68-.86,0,.61-1.35,1.64-.4,1.75-1.5,3.37-2.76l.27.39c4.65-2.58.65-1.6,4.89-3.85l-1.35,1.65,2-1.48-.14.74A20.37,20.37,0,0,1,112,89.16c-.71,0-.15-.92,1.86-2.15,1.53-.56-.55.84,2.31-.89a4.14,4.14,0,0,1-2.5,1.74c0,.21-.48.64-.53.85a15.11,15.11,0,0,0,2.62-1.38l2.2-1.34a8.73,8.73,0,0,1-1.19.54l3.88-3c.75-.21.3.21-.15.63.82-.53,1.3-1.06,2.54-1.79-.14.52.14.83-1.55,2,1.26-.89,2.54-1.74,3.83-2.58.35,0,2.31-.69,1.85-.29A25.69,25.69,0,0,0,131,79.21a25.79,25.79,0,0,1,4.49-2.48,4.71,4.71,0,0,1,1-.74c2.88-1.36,5.66-2.08,8.82-4.2.74-.1,1.49-.18,2.24-.26,2.63-1.35-3,.39,1.37-1.87,3.08-1.64,1.43,0,2.62-.31a19.43,19.43,0,0,1,7.08-3.64C157.72,66.25,156.91,66.48,156,66.92ZM189.87,53.3c-.63.34-1.85,1.1-2.44,1C188,53.52,188.68,53.56,189.87,53.3Zm52.62-17.94a5.16,5.16,0,0,1-2.21.49A11.16,11.16,0,0,1,242.49,35.36ZM394.37,3.87l-.07,0C392.7,3.84,393.27,3.87,394.37,3.87Zm3.31-.06c.32-.09.3-.15.15-.21a5.44,5.44,0,0,1-1.8.24A2.89,2.89,0,0,0,397.68,3.81ZM66.91,116.59l.57-.33C66.48,117.33,66.7,117,66.91,116.59Z"/><path class="cls-3" d="M236.61,37.72a.48.48,0,0,1-.36-.16C236,37.72,236,37.81,236.61,37.72Z"/><path class="cls-3" d="M135.59,76.69l-.1,0a.28.28,0,0,0-.06.13Z"/><path class="cls-3" d="M347.57,13.84a4.85,4.85,0,0,1-1.33-.05C346.22,13.92,346.54,14,347.57,13.84Z"/><path class="cls-3" d="M381.47,7.07l-2.55.41c-.24.19.47.23,1.42.06C380.94,7.36,381.88,7.19,381.47,7.07Z"/><path class="cls-3" d="M381.91,8.55c-.24.19-3.66.88-.43.5C381.72,8.85,384.27,8.44,381.91,8.55Z"/><polygon class="cls-3" points="343.38 12.76 344.03 12.65 343.78 11.66 343.38 12.76"/><path class="cls-3" d="M310.19,21c3-.35.59-.75,3.34-1,.66-.38-2.25.19-1.57-.16C310.21,20.45,309.24,20.5,310.19,21Z"/><path class="cls-3" d="M312,19.84c.28-.09.58-.2.89-.33A8.75,8.75,0,0,0,312,19.84Z"/><polygon class="cls-3" points="3.91 217.73 3.29 219.63 3.89 218.45 3.91 217.73"/><path class="cls-3" d="M3.86,221.61l-.74.34.33,1.27A4.94,4.94,0,0,1,3.86,221.61Z"/><path class="cls-3" d="M195.42,52.72l.09-.2a4.09,4.09,0,0,0-1.65.36Z"/><polygon class="cls-3" points="170.45 61.48 170.88 61.33 169.87 61.09 170.45 61.48"/><path class="cls-3" d="M150.34,70.82c.83-.35,1.74-.91,2.58-1.26C151.17,70.47,149.81,70.25,150.34,70.82Z"/></g></svg>