<svg width="41" height="46" viewBox="0 0 41 46" fill="none" xmlns="http://www.w3.org/2000/svg">
<path d="M40.2971 34.5193C39.438 36.0603 37.5638 36.9849 35.8457 36.8308C34.6742 36.6767 33.5809 36.2915 32.5657 35.7521C31.8628 35.3668 31.2381 34.9816 30.6133 34.4422C29.3638 33.5176 28.2704 32.4389 27.4114 31.129C26.6304 29.8191 25.9276 28.4322 24.9904 27.1993C24.6 26.737 24.2095 26.3518 23.819 25.9665C23.3504 25.5812 22.8819 25.273 22.4133 25.0419C22.1009 24.8878 21.8666 24.7337 21.5542 24.5796C21.4761 24.5796 21.398 24.5025 21.398 24.5025V26.4288C21.398 27.5846 21.5542 28.7404 21.9447 29.8191C22.2571 30.5896 22.6476 31.2831 23.038 31.9765C24.6 34.8275 25.3809 37.9866 25.459 41.2228C25.5371 43.8425 23.3504 46.077 20.6952 46.077C18.899 46.077 17.1809 44.9983 16.4 43.3802C15.9314 42.3015 15.6971 41.2228 15.6971 40.067C15.6971 39.2965 15.6971 38.526 15.7752 37.7554C15.9314 36.2144 16.3219 34.7504 17.1028 33.3635C17.8057 31.9765 18.7428 30.7437 19.2895 29.2797C19.5238 28.7404 19.68 28.201 19.758 27.6616C19.9142 27.1223 19.9142 26.5829 19.9142 25.9665C19.9142 25.6583 19.9142 25.3501 19.9142 25.0419C19.9142 24.8878 19.9142 24.7337 19.9142 24.5796C19.758 24.5796 19.6019 24.6566 19.5238 24.6566C19.2895 24.8107 18.9771 24.9648 18.6647 25.1189C18.1961 25.4271 17.7276 25.6583 17.259 26.0436C16.8685 26.4288 16.4 26.8141 16.0876 27.2764C15.1504 28.5092 14.4476 29.8961 13.6666 31.206C12.8076 32.5159 11.7923 33.5946 10.4647 34.5193C9.83995 34.9816 9.21519 35.4439 8.51233 35.7521C7.4971 36.2915 6.40376 36.6767 5.23233 36.8308C3.43614 36.9849 1.63995 36.0603 0.780906 34.5193C-0.546713 32.2077 0.312335 29.2797 2.65519 27.9698C5.54472 26.4288 8.66853 25.5812 11.9485 25.4271C12.7295 25.3501 13.5885 25.3501 14.3695 25.196C15.5409 24.9648 16.6342 24.5025 17.5714 23.9632L19.2895 22.9615C19.1333 22.8844 18.899 22.7303 18.7428 22.6533C18.5085 22.4992 18.1961 22.3451 17.8838 22.191C17.4152 21.8827 16.8685 21.6516 16.3219 21.4975C15.7752 21.3434 15.2285 21.1893 14.6038 21.1122C13.0419 20.8811 11.48 21.0352 9.91805 20.9581C8.27805 20.8811 6.87233 20.4958 5.38853 19.8794C4.68567 19.5712 3.98281 19.263 3.27995 18.8007C2.26472 18.1843 1.40567 17.4908 0.702811 16.5662C-0.312427 15.1792 -0.390523 13.0988 0.468525 11.5578C1.79614 9.24623 4.84186 8.55276 7.10662 9.9397C9.91805 11.6348 12.2609 13.8693 13.979 16.5662C14.4476 17.2596 14.838 17.9531 15.3847 18.5695C16.1657 19.4171 17.1028 20.1106 18.118 20.727L19.5238 21.4975V19.4941C19.5238 18.3384 19.3676 17.1826 18.9771 16.1039C18.6647 15.3333 18.2742 14.6399 17.8838 13.9464C16.3219 11.0955 15.4628 7.93635 15.4628 4.70017C15.619 2.31156 17.7276 0 20.4609 0C22.2571 0 23.9752 1.07873 24.7561 2.69682C25.2247 3.77554 25.459 4.85427 25.459 6.01005C25.459 6.78057 25.459 7.55109 25.3809 8.32161C25.2247 9.86265 24.8342 11.3266 24.0533 12.7136C23.3504 14.1005 22.4133 15.3333 21.8666 16.7973C21.6323 17.3367 21.4761 17.876 21.398 18.4154C21.2419 18.9548 21.2419 19.4941 21.2419 20.1106C21.2419 20.4188 21.2419 20.727 21.2419 21.0352C21.2419 21.1893 21.2419 21.4204 21.2419 21.5745L22.8038 20.727C23.819 20.1876 24.7561 19.4941 25.5371 18.5695C26.0838 17.9531 26.4742 17.2596 26.9428 16.5662C28.739 13.8693 31.0038 11.5578 33.8933 9.9397C36.1581 8.62982 39.2038 9.32328 40.5314 11.5578C41.3904 13.0988 41.3123 15.1022 40.2971 16.5662C39.5942 17.4908 38.7352 18.2613 37.72 18.8007C37.0171 19.1859 36.3142 19.5712 35.6114 19.8794C34.1276 20.4958 32.7219 20.8811 31.0819 20.8811C29.52 20.9581 27.958 20.804 26.3961 21.0352C25.8495 21.1122 25.2247 21.2663 24.678 21.4204C24.1314 21.5745 23.6628 21.8827 23.1161 22.1139C22.8819 22.268 22.5695 22.4221 22.2571 22.5762C22.1009 22.6533 21.8666 22.8074 21.7104 22.8844L23.4285 23.8861C24.4438 24.5025 25.5371 24.9648 26.6304 25.1189C27.4114 25.273 28.2704 25.273 29.0514 25.3501C32.3314 25.5042 35.4552 26.3518 38.3447 27.8928C40.6876 29.2797 41.6247 32.2077 40.2971 34.5193Z" fill="#0038C9"/>
</svg>
